<?xml version="1.0" encoding="UTF-8"?>
<svg width="256px" height="256px" viewBox="0 0 256 256" version="1.1" xmlns="http://www.w3.org/2000/svg" xmlns:xlink="http://www.w3.org/1999/xlink">
    <!-- Generator: Sketch 49.1 (51147) - http://www.bohemiancoding.com/sketch -->
    <title>pelicans/logo</title>
    <desc>Created with Sketch.</desc>
    <defs></defs>
    <g id="pelicans/logo" stroke="none" stroke-width="1" fill="none" fill-rule="evenodd">
        <g id="new_orleans_pelicans">
            <g id="Group" transform="translate(3.000000, 3.000000)">
                <rect id="Rectangle-64" x="0" y="0" width="250" height="250"></rect>
                <g id="New_Orleans_Pelicans_logo" transform="translate(15.000000, 43.000000)" fill-rule="nonzero">
                    <path d="M90.8387097,12.5526486 C90.9451613,12.659027 91.1580645,12.659027 91.2645161,12.7654054 C86.1548387,13.1909189 81.0451613,13.7228108 76.2548387,14.4674595 C80.3515673,11.099 86.0102994,10.3560285 90.8387097,12.5526486 Z M144.277419,14.4674595 C139.380645,13.7228108 134.377419,13.0845405 129.267742,12.7654054 C129.374194,12.659027 129.480645,12.659027 129.693548,12.5526486 C134.513625,10.3012197 140.202909,11.0482027 144.277419,14.4674595 Z M218.474194,62.4441081 L219.219355,62.6568649 L219.219355,50.316973 C219.175657,48.3574454 218.816209,46.417763 218.154839,44.5725405 C217.518315,42.6439913 216.545242,40.8432448 215.280645,39.2536216 C214.169905,37.7892594 212.882782,36.4672929 211.448387,35.3176216 C210.17996,34.2919806 208.784607,33.4338925 207.296774,32.7645405 C206.33871,32.1262703 204.422581,31.1688649 199.312903,29.2540541 C195.054839,27.552 188.029032,24.8925405 179.087097,22.2330811 C169.050693,19.265212 158.849468,16.8853799 148.535484,15.1057297 C148.429032,14.9993514 140.551613,5.10616216 128.735484,10.2123243 C128.309677,10.4250811 127.883871,10.6378378 127.458065,10.8505946 C125.577699,12.0146756 123.278158,12.2873149 121.177419,11.5952432 C119.367742,11.1697297 117.132258,9.99956757 118.090323,6.06356757 C118.379235,4.94136412 119.108284,3.98274854 120.112903,3.40410811 C120.816896,2.98178657 121.663395,2.86643431 122.454839,3.08497297 C124.051613,3.51048649 124.796774,4.46789189 124.477419,5.74443243 C124.430307,6.26124123 124.103296,6.71057237 123.625806,6.91459459 C123.076508,7.12493632 122.455121,7.00074436 122.029032,6.59545946 C121.437237,6.20220619 120.640708,6.34267346 120.219355,6.91459459 C119.879652,7.48099373 120.016754,8.2116993 120.53871,8.61664865 C121.676687,9.53511982 123.218072,9.77832893 124.583871,9.25491892 C125.805052,8.62517919 126.696752,7.50163428 127.032258,6.16994595 C127.13871,5.21254054 127.351613,1.91481081 123.2,0.744648649 C121.743361,0.217721408 120.122708,0.415226101 118.835484,1.27654054 C117.236169,2.20186467 116.08305,3.7382989 115.641935,5.53167568 L115.641935,5.63805405 C115.258596,5.10676481 114.831288,4.60858206 114.364516,4.14875676 L110.212903,0 L106.167742,4.14875676 C105.697593,4.60542334 105.270022,5.10391291 104.890323,5.63805405 L104.890323,5.53167568 C104.410104,3.75708012 103.267098,2.23411975 101.696774,1.27654054 C100.407262,0.421399138 98.7896325,0.224262898 97.3322581,0.744648649 C93.0741935,1.91481081 93.3935484,5.21254054 93.5,6.16994595 C93.7581142,7.53836962 94.6737869,8.69211918 95.9483871,9.25491892 C97.2784884,9.78544885 98.7929277,9.54003306 99.8870968,8.61664865 C100.17159,8.44932716 100.376917,8.17483672 100.45698,7.85480532 C100.537043,7.53477391 100.485133,7.1960181 100.312903,6.91459459 C99.8915502,6.34267346 99.095021,6.20220619 98.5032258,6.59545946 C98.0699217,6.98663867 97.4569818,7.10914232 96.9064516,6.91459459 C96.4289856,6.68615538 96.0779092,6.25735719 95.9483871,5.74443243 C95.7354839,4.46789189 96.3741935,3.61686486 97.9709677,3.08497297 C98.7974128,2.86661969 99.6766077,2.98121838 100.419355,3.40410811 C101.394267,4.01583154 102.113172,4.96110838 102.441935,6.06356757 C103.4,9.99956757 101.058065,11.1697297 99.3548387,11.5952432 C96.2677419,12.4462703 94.7774194,11.7016216 92.9677419,10.8505946 C92.589992,10.6155717 92.1990234,10.4024628 91.7967742,10.2123243 C79.9806452,5.21254054 72.1032258,14.9993514 71.9967742,15.1057297 L71.8903226,15.2121081 C61.9731867,16.9114355 52.1631347,19.1846652 42.5096774,22.0203243 C32.9207291,24.8254624 23.531738,28.272832 14.4064516,32.339027 L12.7032258,33.0836757 L12.7032258,33.2964324 C12.0645161,33.5091892 11.3193548,33.7219459 10.5741935,34.0410811 C7.91290323,35.2112432 5.35806452,36.4877838 2.80322581,37.7643243 L0.887096774,38.7217297 L0.887096774,45.5299459 C0.850107754,46.9376464 1.18027867,48.3307423 1.84516129,49.5723243 C2.02299915,49.7588457 2.16707483,49.9748105 2.27096774,50.2105946 L2.27096774,57.6570811 C1.45245957,59.1598093 1.01392713,60.8396938 0.993548387,62.5504865 C0.943152644,64.070181 1.39178923,65.5646075 2.27096774,66.8056216 L2.27096774,82.3368649 L2.48387097,82.7623784 C4.29355186,87.2004019 7.88586067,90.6744382 12.383871,92.3364324 L12.1709677,92.4428108 C12.1709677,92.4428108 16.1096774,98.7191351 22.0709677,99.9956757 L20.9,100.527568 C23.8545566,104.813877 28.3573105,107.788226 33.4612903,108.825081 L32.183871,109.463351 C35.9089118,113.071676 40.6762078,115.416465 45.8096774,116.165189 C54.7786099,144.176746 80.8353664,163.184457 110.266129,163.184457 C139.696892,163.184457 165.753648,144.176746 174.722581,116.165189 C179.819301,115.398473 184.547362,113.054671 188.241935,109.463351 L187.070968,108.825081 C195.267742,107.335784 199.525806,100.527568 199.525806,100.527568 L198.354839,99.9956757 C204.422581,98.7191883 208.254839,92.4428108 208.254839,92.4428108 L208.680645,91.9109189 C215.162414,89.2341911 219.430492,82.9619233 219.53871,75.9541622 L219.53871,68.0821622 C219.51438,66.1552771 219.154151,64.247375 218.474194,62.4441081 Z" id="Shape" fill="#B4975A"></path>
                    <path d="M212.832258,57.1251892 L216.451613,58.6144865 L216.451613,50.316973 C216.436901,48.6850008 216.149056,47.0669889 215.6,45.5299459 C215.020591,43.8899929 214.195028,42.3476099 213.151613,40.9556757 C212.126621,39.6832784 210.986301,38.5081323 209.745161,37.4451892 C208.569634,36.5382948 207.281495,35.7873979 205.912903,35.2112432 C205.167742,34.6793514 203.358065,33.7219016 198.354839,31.8071351 C194.096774,30.1050811 187.177419,27.552 178.235484,24.8925405 C163.651613,20.531027 141.722581,15.4248649 118.729032,14.9993514 C118.185923,13.4228941 116.850382,12.2500438 115.216129,11.9143784 C114.98942,9.68327863 113.96964,7.60737907 112.341935,6.06356757 L110.212903,3.936 L108.083871,6.06356757 C106.540144,7.65495602 105.56695,9.71221835 105.316129,11.9143784 C103.637662,12.2076252 102.251305,13.389293 101.696774,14.9993514 C79.2354839,15.4248649 57.6258065,20.4246486 43.2548387,24.6797838 C33.7898803,27.4605504 24.5101186,30.8359177 15.4709677,34.7857297 L15.4709677,36.4877838 C15.3560218,36.4305067 15.2487304,36.3590283 15.1516129,36.275027 C14.7015383,36.1442961 14.2363257,36.0727742 13.7677419,36.0622703 C13.0710545,36.0598904 12.3817533,36.2049066 11.7451613,36.4877838 C9.19032258,37.6579459 6.63548387,38.9344865 4.08064516,40.211027 L3.65483871,40.4237838 L3.65483871,45.5299459 C3.62558628,46.457594 3.84617215,47.3760695 4.29354839,48.1894054 C4.50805025,48.5334926 4.75778068,48.8543537 5.03870968,49.1468108 L5.03870968,58.2953514 C4.24315418,59.5755739 3.80230576,61.0440577 3.76129032,62.5504865 C3.68671338,63.7518643 4.15559884,64.9232715 5.03870968,65.7418378 L5.03870968,81.804973 C6.87054944,86.0822692 10.6220673,89.2392688 15.1516129,90.3152432 C15.335586,90.2987715 15.5204058,90.3357285 15.683871,90.4216748 L15.7903226,90.4216748 C17.083644,90.6994957 18.4078161,90.8067871 19.7290323,90.7408099 C18.3451613,91.3790802 17.0677419,92.0172973 15.683871,92.7619991 C15.683871,92.8683775 19.7290323,99.463837 29.416129,98.5064316 C27.8193548,99.2510802 26.2225806,99.9957289 24.6258065,100.846756 C24.6258065,100.953134 29.2032258,107.442215 39.4225806,107.229459 C37.0806452,108.399621 35.6967742,109.144269 35.6967742,109.144269 C39.0984421,112.221671 43.4621071,114.026083 48.0451613,114.250432 C56.3332567,141.663949 81.6090439,160.418715 110.266129,160.418715 C138.923214,160.418715 164.199001,141.663949 172.487097,114.250432 C177.062961,113.994308 181.416437,112.194109 184.835484,109.144269 C184.835484,109.144269 183.345161,108.399621 181.003226,107.229459 C191.222581,107.442215 195.906452,100.953134 195.906452,100.846756 C194.309677,99.9957289 192.712903,99.2510802 191.116129,98.5064316 C200.803226,99.463837 204.848387,92.8683775 204.848387,92.7619991 C203.464516,92.0173505 202.187097,91.3790802 200.803226,90.7408099 C203.629314,90.9064335 206.442011,90.2407266 208.893548,88.8259991 C214.003226,85.9537829 216.877419,80.634864 216.877419,75.9542154 L216.877419,68.0821622 C216.877419,62.976 212.832258,57.1251892 212.832258,57.1251892 Z" id="Shape" fill="#002B5C"></path>
                    <path d="M153.432258,119.782107 C154.709677,120.633134 155.880645,121.590469 157.158065,122.547883 C157.158065,122.441567 142.680645,126.483883 132.354839,122.015991 C132.022601,121.796723 131.6652,121.618146 131.290323,121.484099 C128.660942,130.916003 120.063934,137.440904 110.266129,137.440904 C100.468324,137.440904 91.8713159,130.916003 89.2419355,121.484099 C88.8327881,121.616697 88.4399671,121.795129 88.0709677,122.015991 C77.8516129,126.483883 63.3741935,122.441505 63.3741935,122.547883 C64.6516129,121.590478 65.8225806,120.633072 66.9935484,119.782107 C62.7011053,120.33143 58.3403126,119.931947 54.2193548,118.611892 C63.5517343,141.329545 85.6918358,156.163531 110.266129,156.163531 C134.840422,156.163531 156.980524,141.329545 166.312903,118.611892 C162.156389,119.937265 157.759804,120.336698 153.432258,119.782107 Z" id="Shape" fill="#E31837"></path>
                    <path d="M104.251613,21.2756757 C103.16125,20.7377447 102.294663,19.8341019 101.803226,18.7225946 C65.5032258,19.5736216 29.2032258,32.6581622 29.3096774,33.1900541 C27.9895473,33.5679032 27.024713,34.6997556 26.8612903,36.0622703 L26.8612903,37.3388108 C51.5543113,27.6912842 77.7458763,22.4349736 104.251613,21.8075676 L104.251613,21.2756757 Z" id="Shape" fill="#FFFFFF"></path>
                    <path d="M193.458065,34.0410811 C193.564516,33.5091892 155.454839,19.5736216 118.729032,18.7225946 C118.205345,19.8121476 117.347687,20.7064794 116.280645,21.2756757 L116.280645,21.8075676 C143.571439,22.6210373 170.5136,28.1641367 195.906452,38.1898378 L195.906452,36.9132973 C195.682844,35.5779316 194.741804,34.473993 193.458065,34.0410811 Z" id="Shape" fill="#FFFFFF"></path>
                    <path d="M114.258065,14.7865946 C111.916129,14.4674595 111.490323,17.7651892 111.383871,18.9353957 L110.63871,18.9353957 C110.745161,15.7440443 112.235484,14.4675038 112.235484,12.3399362 C112.235484,10.2123686 110.212903,8.19117946 110.212903,8.19117946 C110.212903,8.19117946 108.296774,10.2123686 108.296774,12.3399362 C108.296774,14.4675038 109.787097,15.7440443 109.787097,18.9353957 L109.041935,18.9353957 C109.041935,17.7652335 108.616129,14.4675038 106.274194,14.7865946 C103.719355,14.9993957 104.03871,18.6162162 106.274194,18.8290262 C106.274194,18.8290262 105.848387,17.2333505 107.125806,17.2333505 C107.977419,17.2333505 108.296774,18.4035126 108.296774,18.9354045 L107.232258,18.9354045 L107.232258,20.2118919 L109.680645,20.2118919 C109.539572,20.8615281 109.107927,21.4105164 108.509677,21.7011892 C108.73197,22.0989526 109.124112,22.3732632 109.574194,22.4458378 C109.599451,23.0032167 109.826425,23.5324583 110.212903,23.9351351 C110.599381,23.5324583 110.826355,23.0032167 110.851613,22.4458378 C111.323402,22.3577537 111.742915,22.0909746 112.022581,21.7011892 C111.424331,21.4105164 110.992686,20.8615281 110.851613,20.2118919 L113.3,20.2118919 L113.3,18.9353514 L112.235484,18.9353514 C112.235484,18.4034595 112.448387,17.2332973 113.406452,17.2332973 C114.683871,17.2332973 114.258065,18.828973 114.258065,18.828973 C116.493548,18.6162162 116.812903,14.9993514 114.258065,14.7865946 Z" id="Shape" fill="#E31837"></path>
                    <path d="M98.2903226,51.3807568 C98.2980239,51.8949433 98.188829,52.4041691 97.9709677,52.8700541 C97.7174828,53.2149393 97.4323784,53.535461 97.1193548,53.8274595 C96.7993577,54.0671993 96.4387609,54.2473737 96.0548387,54.3593514 C95.6978723,54.5631407 95.2949448,54.6729545 94.883871,54.6784865 C94.4553001,54.6959851 94.0262129,54.6602525 93.6064516,54.5721081 C93.2287959,54.4957236 92.8681255,54.3515547 92.5419355,54.1465946 C92.1800195,53.9063901 91.8866032,53.5765239 91.6903226,53.1891892 C91.4605715,52.7656007 91.3501951,52.2876322 91.3709677,51.8062703 L91.3709677,32.1262703 C91.3501961,31.6448915 91.4605721,31.1669061 91.6903226,30.7432982 C91.9138459,30.3443999 92.2015646,29.9849989 92.5419355,29.6795144 C92.8822516,29.4434553 93.237872,29.2302298 93.6064516,29.0412441 C94.0220515,28.9188326 94.4510076,28.8473891 94.883871,28.8284874 C95.2772077,28.8110309 95.6711002,28.8468147 96.0548387,28.9348657 C96.4324939,29.0112518 96.7931641,29.1554206 97.1193548,29.3603792 C97.4812476,29.6006105 97.7746578,29.9304699 97.9709677,30.3177846 C98.2007247,30.7413709 98.3111015,31.2193411 98.2903226,31.7007036 L98.2903226,51.3807568 Z M102.654839,39.2536216 L102.654839,31.3816216 C102.682642,30.3861895 102.463201,29.3993822 102.016129,28.5094054 C101.656722,27.7127265 101.062495,27.0446815 100.312903,26.5945946 C99.6174367,26.0099722 98.7666887,25.6403363 97.8645161,25.5308108 C96.889252,25.2977664 95.8823799,25.2258964 94.883871,25.3180541 C93.8322689,25.3210644 92.788669,25.5008716 91.7967742,25.8499459 C90.9030313,26.1577427 90.0732247,26.6264412 89.3483871,27.2328649 C88.6342151,27.8537232 88.0546049,28.6139382 87.6451613,29.4668108 C87.209583,30.3608365 86.9907757,31.3447916 87.0064516,32.339027 L87.0064516,40.211027 C86.2038952,40.4535797 85.6465442,41.1819218 85.6225806,42.0194595 C85.6221705,42.8214059 86.2120419,43.5015586 87.0064516,43.6151351 L87.0064516,52.3381622 C86.9786654,53.3335926 87.198106,54.3203957 87.6451613,55.2103784 C88.0637855,55.9669693 88.6455769,56.6210343 89.3483871,57.1251892 C90.1003389,57.5887072 90.9297202,57.9130244 91.7967742,58.0825946 C92.8136697,58.2812557 93.855697,58.317163 94.883871,58.188973 C95.899937,58.1767659 96.9070199,57.9970534 97.8645161,57.6570811 C98.7518101,57.3845621 99.5816369,56.9519068 100.312903,56.3805405 C101.023664,55.7985566 101.60397,55.0736735 102.016129,54.252973 C102.451711,53.3589484 102.670518,52.3749925 102.654839,51.3807568 L102.654839,42.5513514 C103.507561,42.4361087 104.144053,41.7091894 104.145161,40.8492973 C104.173336,39.997863 103.506776,39.2841833 102.654839,39.2536216 Z" id="Shape" fill="#FFFFFF"></path>
                    <path d="M19.3032258,60.4229189 C19.3032258,60.4229189 19.3032258,60.5292973 19.1967742,60.4229189 L19.1967742,60.3165405 C18.983871,59.9974054 13.8741935,42.7641081 13.5548387,42.0194595 C13.3419355,41.2748108 13.1290323,40.8492973 13.1290323,40.7429189 C13.0886489,40.5335462 12.9755413,40.3451633 12.8096774,40.211027 C12.5568814,40.200866 12.3043533,40.2369167 12.0645161,40.3174054 C10.4677419,41.0620541 8.97741935,41.8067027 7.38064516,42.5513514 L7.38064516,44.0406486 C7.37799567,44.4060685 7.45045983,44.7681401 7.59354839,45.1044324 C7.80645161,45.3172335 7.91290323,45.5299459 8.12580645,45.5299459 C8.35195919,45.6632394 8.6084836,45.7364817 8.87096774,45.7427027 L8.87096774,58.8272432 C8.09264848,59.3217797 7.58299838,60.1444943 7.48709677,61.0611892 C7.45064361,61.4148202 7.60012096,61.7620808 7.88209465,61.9788344 C8.16406833,62.195588 8.53828335,62.2508906 8.87096774,62.124973 L8.87096774,80.6348108 C10.0419355,79.9965405 11.2129032,79.4646486 12.383871,78.8263784 L12.383871,55.7422703 C12.3783445,55.626356 12.4163049,55.5125529 12.4903226,55.4231351 C12.4903226,55.5295135 12.4903226,55.5295135 12.5967742,55.5295135 C12.6983639,55.9674216 12.8409267,56.3948157 13.0225806,56.8060541 C13.2354839,57.5507027 18.3451613,74.3584865 18.3451613,74.5712432 C18.4462446,74.9070019 18.5893095,75.2286765 18.7709677,75.5286486 C18.983871,75.8477838 19.1967742,75.8477838 19.516129,75.7414054 C20.3677419,75.3158919 21.2193548,74.9967568 21.9645161,74.6776216 C22.2975329,74.5899825 22.5720777,74.3548202 22.7096774,74.0393514 C22.8915492,73.7899523 23.0019576,73.4957324 23.0290323,73.1883243 L23.0290323,55.7422703 C23.7074096,55.2822772 24.1385915,54.5380209 24.2,53.7210811 C24.2347409,53.4013475 24.1225851,53.0831099 23.8950139,52.8556952 C23.6674426,52.6282806 23.348986,52.5162019 23.0290323,52.5509189 L23.0290323,39.6791351 C23.0012021,39.4948536 23.0388682,39.3066527 23.1354839,39.1472432 C23.2419355,38.9344865 23.3483871,38.8281081 23.4548387,38.6153514 C23.7162395,38.3313271 23.9317305,38.0083131 24.0935484,37.6579459 C24.3112302,37.2298847 24.4208657,36.7551242 24.4129032,36.275027 L24.4129032,35.1048649 C22.7096774,35.7431351 21.0064516,36.4877838 19.3032258,37.2324324 L19.3032258,60.4229189 Z" id="Shape" fill="#FFFFFF"></path>
                    <path d="M190.903226,60.6356757 C190.903226,60.7420541 190.903226,60.7420541 190.796774,60.7420541 C190.785588,60.6613914 190.748185,60.5866377 190.690323,60.5292973 L190.051613,57.9762162 C189.732258,56.8060541 189.306452,55.3167568 188.880645,53.7210811 C188.454839,52.019027 187.922581,50.316973 187.496774,48.5085405 C186.964516,46.7001081 186.53871,45.1044324 186.112903,43.6151351 C185.687097,42.0194595 185.26129,40.8492973 185.048387,39.7855135 C184.729032,38.7217297 184.622581,38.1898378 184.622581,38.1898378 C184.546383,37.8778131 184.400847,37.5869419 184.196774,37.3388108 C184.090323,37.1260541 183.770968,37.0196757 183.451613,36.9132973 C181.854839,36.3813759 180.258065,35.849484 178.66129,35.3176216 L178.66129,36.8069189 C178.618167,37.2093171 178.692088,37.6156056 178.874194,37.9770811 C178.996148,38.3047217 179.138357,38.6244729 179.3,38.9344865 C179.512903,39.1472432 179.832258,39.36 180.045161,39.5727568 L180.045161,49.7850811 C179.682776,49.7291136 179.314628,49.8413232 179.045184,50.0898693 C178.775741,50.3384154 178.634408,50.6961719 178.66129,51.0616216 C178.737804,51.9305946 179.262373,52.696746 180.045161,53.0828108 L180.045161,68.0821622 C181.322581,68.5076757 182.6,68.8268108 183.877419,69.2523243 L183.877419,48.5085405 C183.877419,48.6149189 183.877419,48.6149189 183.983871,48.7212973 C184.098019,49.2252469 184.240175,49.7224498 184.409677,50.2105946 C184.622581,51.2743784 185.048387,52.4445405 185.474194,53.9338378 C185.9,55.4231351 186.325806,57.1251892 186.858065,58.8272432 C187.283871,60.6356757 187.816129,62.2313514 188.241935,63.827027 C188.667742,65.3163243 188.987097,66.6992876 189.306452,67.763027 C189.463819,68.4184752 189.677515,69.0591239 189.945161,69.6778378 C190.022745,70.156194 190.166032,70.6215589 190.370968,71.0607568 C190.501497,71.4039542 190.772695,71.6749661 191.116129,71.8054054 C191.967742,72.1245405 192.712903,72.4436757 193.564516,72.7628108 C193.883871,72.8691892 194.203226,72.8691892 194.309677,72.6564324 C194.515932,72.510166 194.635691,72.2708121 194.629032,72.0181622 L194.629032,58.188973 C194.944137,58.2046379 195.251172,58.086392 195.47426,57.8634573 C195.697348,57.6405227 195.815676,57.3336986 195.8,57.0188108 C195.716551,56.1796574 195.293522,55.411044 194.629032,54.8912432 L194.629032,44.9980541 C194.629032,44.6789189 194.629032,44.5725405 194.735484,44.4661622 C194.823529,44.3709192 194.932998,44.29799 195.054839,44.2534054 C195.665585,43.9617199 196.042767,43.3335169 196.012903,42.6577297 L196.012903,41.4875676 C194.345947,40.7565305 192.640165,40.1173024 190.903226,39.5727568 L190.903226,60.6356757 Z" id="Shape" fill="#FFFFFF"></path>
                    <path d="M212.3,63.9334586 C211.765403,62.7770086 211.123909,61.6729725 210.383871,60.6357289 C209.733371,59.7035087 209.022155,58.8151006 208.254839,57.9762694 C208.36129,57.869891 208.36129,57.7635126 208.36129,57.5507559 C208.284882,56.5152566 207.681967,55.591424 206.764516,55.1040532 C206.41775,54.9970871 206.046766,54.9970871 205.7,55.1040532 C205.591886,54.902175 205.447551,54.7218807 205.274194,54.5721613 C204.529032,53.7211343 203.890323,52.9764856 203.358065,52.231837 C202.91199,51.6482901 202.652306,50.9439184 202.612903,50.2106478 L202.612903,43.4023784 C202.602479,43.1378115 202.677089,42.8768588 202.825806,42.6577297 C203.03871,42.4449286 203.358065,42.4449286 203.570968,42.3385946 L204.529032,42.3385946 C204.848387,42.444973 205.167742,42.5513514 205.487097,42.6577297 C205.82778,42.7936049 206.149732,42.9723441 206.445161,43.1896216 C206.764516,43.4023784 207.083871,43.7215135 207.403226,43.9342703 C207.684145,44.2267361 207.933874,44.5475961 208.148387,44.8916757 C208.31119,45.2215752 208.384598,45.5883633 208.36129,45.9554595 L208.36129,47.5511351 C208.399181,48.2847163 208.659025,48.9895211 209.106452,49.5723243 C209.505648,50.2593595 210.097871,50.8141861 210.809677,51.168 C211.467372,51.4069068 212.107629,51.6912696 212.725806,52.019027 L212.725806,48.8276757 C212.713517,47.7776244 212.533844,46.73624 212.193548,45.7427027 C211.789766,44.7524168 211.252544,43.8218735 210.596774,42.9768649 C209.936009,42.1203976 209.186704,41.3359517 208.36129,40.6365405 C207.500946,40.0034705 206.572627,39.46827 205.593548,39.0408649 C204.695833,38.5632842 203.724273,38.2396539 202.719355,38.0834595 C201.967679,37.9846848 201.203376,38.0574254 200.483871,38.2962162 C199.8473,38.5791603 199.323,39.065675 198.993548,39.6791351 C198.622892,40.5532437 198.441501,41.4958305 198.46129,42.444973 L198.46129,48.083027 C198.44121,49.2602163 198.696366,50.42584 199.206452,51.4871351 C199.744018,52.5414552 200.385933,53.539303 201.122581,54.4657297 C201.881665,55.4365743 202.699313,56.360236 203.570968,57.2315676 C203.570968,57.4443243 203.464516,57.6570811 203.464516,57.8698378 C203.540938,58.9053327 204.143849,59.8291595 205.06129,60.3165405 C205.465489,60.5601189 205.980431,60.5172366 206.33871,60.2101622 C207.011834,61.0094942 207.617153,61.8634743 208.148387,62.7632432 C208.592571,63.6210474 208.846717,64.564371 208.893548,65.5290811 L208.893548,73.6138378 C208.893548,74.0393514 208.787097,74.3584865 208.574194,74.4648649 C208.353527,74.7080935 208.049697,74.8599041 207.722581,74.8903784 C207.375952,74.9837808 207.016337,75.0197176 206.658065,74.9967568 C206.33871,74.8903784 205.912903,74.784 205.593548,74.6776216 C205.180021,74.4678761 204.787857,74.2184891 204.422581,73.932973 C204.042489,73.6823662 203.686162,73.3975009 203.358065,73.0819459 C203.072346,72.7169406 202.822787,72.3250608 202.612903,71.9118281 C202.410657,71.5932721 202.300161,71.2251845 202.293548,70.8479823 L202.293548,68.9331892 C202.280312,68.3270289 202.095791,67.7369692 201.76129,67.2311351 C201.311614,66.6676009 200.725339,66.2281971 200.058065,65.9545946 C199.312903,65.6354595 198.674194,65.4227027 198.035484,65.1035676 L198.035484,68.4012973 C198.031335,69.4628241 198.248874,70.513538 198.674194,71.4862703 C199.037517,72.4637001 199.578912,73.3654034 200.270968,74.1457297 C200.943899,74.9955497 201.732135,75.7474395 202.612903,76.3796757 C203.569422,77.0094639 204.564971,77.5779577 205.593548,78.0817297 C206.502481,78.5104709 207.471797,78.7974781 208.467742,78.9327568 C209.233738,79.1464828 210.043681,79.1464828 210.809677,78.9327568 C211.517121,78.7349272 212.124772,78.2795028 212.512903,77.6562162 C212.885458,76.8577567 213.06765,75.9838389 213.045161,75.1031351 L213.045161,67.3375135 C213.043011,66.1626573 212.788918,65.0019058 212.3,63.9334586 Z" id="Shape" fill="#FFFFFF"></path>
                    <path d="M66.7806452,45.3172424 C66.5677419,46.8064776 66.3548387,48.295837 66.2483871,49.7851343 C66.0354839,51.2744316 65.8225806,52.5509721 65.716129,53.7211343 C65.6096774,54.8912964 65.5032258,55.8487018 65.3967742,56.4869721 C65.353927,56.8466125 65.2827382,57.2023118 65.183871,57.5507559 C64.8645161,55.5295312 64.5451613,53.7210811 64.2258065,52.1254054 C64.0129032,50.5297297 63.6935484,48.7212973 63.3741935,46.7001081 C63.0548387,44.7852973 62.6290323,42.7641613 62.3096774,40.8492973 C61.9903226,38.9344333 61.6709677,37.1260541 61.3516129,35.5303784 C61.0322581,33.9347027 60.7129032,32.5517838 60.5,31.5943784 C60.5,31.3816216 60.1806452,31.1688649 59.7548387,31.0624865 C59.2637668,30.9561125 58.755588,30.9561125 58.2645161,31.0624865 C57.792644,31.2109612 57.3304627,31.388601 56.8806452,31.5943784 C56.4815995,31.8391954 56.1804471,32.2153768 56.0290323,32.6581622 C55.7051152,34.0264655 55.4563563,35.4114543 55.283871,36.8069189 C54.9645161,38.6153514 54.6451613,40.5301622 54.2193548,42.5513514 C53.9,44.6789189 53.5806452,46.8064865 53.2612903,48.9340541 C52.9419355,51.0616216 52.6225806,53.0828108 52.3032258,54.7848649 C52.0903226,56.5932973 51.7709677,58.5081081 51.4516129,60.7420541 C51.3451613,60.7420541 51.3451613,60.4229189 51.2387097,59.7846486 C51.1322581,59.1463784 51.0258065,58.188973 50.9193548,57.1251892 C50.7064516,56.0614054 50.6,54.7848649 50.3870968,53.4019459 C50.2806452,52.0189738 50.0677419,50.6361081 49.8548387,49.1468108 C49.5354839,45.7427027 48.0451613,33.5091892 48.0451613,33.5091892 C46.3419355,34.0410811 44.5322581,34.572973 42.8290323,35.1048649 L42.8290323,36.3814054 C42.803916,36.7628501 42.9173044,37.1405513 43.1483871,37.4451892 C43.3033758,37.682234 43.5258287,37.8674839 43.7870968,37.9770811 C43.8935484,38.0834595 44.1064516,38.0834595 44.2129032,38.1898378 C44.3193548,38.4025946 44.3193548,38.508973 44.4258065,38.7217297 C44.8516129,42.2322162 45.1709677,45.4236208 45.5967742,48.2957838 C44.9512145,48.7228674 44.5540754,49.4372259 44.5322581,50.2105946 C44.5053755,50.5760443 44.6467084,50.9338008 44.9161521,51.1823469 C45.1855957,51.430893 45.5537433,51.5431026 45.916129,51.4871351 C45.9155228,51.5155298 45.9265434,51.542941 45.9466399,51.5630236 C45.9667364,51.5831063 45.9941664,51.5941193 46.0225806,51.5935135 C46.1290323,53.2955676 46.3419355,54.8912432 46.5548387,56.3805405 C46.7677419,57.9762162 46.8741935,59.3591351 47.0870968,60.6356757 C47.1935484,61.8058378 47.4064516,62.8696216 47.5129032,63.6142703 C47.517661,64.0417864 47.553237,64.4684045 47.6193548,64.8908108 C47.6152375,65.1145553 47.7392145,65.3210416 47.9387097,65.4227027 C48.0451613,65.6355038 48.2580645,65.6355038 48.5774194,65.6355038 C50.1741935,65.2099903 51.7709677,64.6780984 53.4741935,64.3589632 C53.781744,64.2839324 54.0485848,64.093463 54.2193548,63.8270714 C54.3824862,63.55449 54.5248249,63.2700084 54.6451613,62.9760443 C55.9225806,55.6359362 57.0935484,48.4022065 58.3709677,41.0620984 C59.5419355,47.7639362 60.7129032,54.5721524 61.9903226,61.2739903 C62.1088723,61.5348499 62.2514205,61.7841376 62.416129,62.0186389 C62.6522978,62.1136276 62.9079532,62.1501246 63.1612903,62.1250173 C64.8645161,61.8058822 66.4612903,61.486747 68.0580645,61.1676119 C68.3385014,61.0911194 68.5949036,60.9447047 68.8032258,60.7420984 C68.9095591,60.5053687 68.9812612,60.254584 69.016129,59.9974497 C69.016129,59.8910714 69.1225806,59.4655578 69.2290323,58.614584 C69.3354839,57.8699354 69.4419355,56.8061516 69.6548387,55.4232326 C69.7612903,54.1466921 69.9741935,52.6573948 70.0806452,51.0617191 C70.2935484,49.3596237 70.5064516,47.6575697 70.7193548,45.955557 L70.7193548,45.7427027 C71.5824918,45.4999685 72.1867145,44.7236452 72.2096774,43.8278919 C72.2240656,43.1962797 71.7694415,42.651106 71.1451613,42.5513514 C71.4645161,39.36 71.8903226,36.0622703 72.316129,32.339027 C72.3382292,32.1129922 72.4109981,31.8948356 72.5290323,31.7007568 C72.6354839,31.5943784 72.8483871,31.488 72.9548387,31.2752432 C73.2186947,31.0756487 73.4365207,30.8216932 73.5935484,30.5305946 C73.8109491,30.1407336 73.9211371,29.7002849 73.9129032,29.2540541 L73.9129032,27.9775135 C72.1032258,28.1903146 70.4,28.5094054 68.5903226,28.8285405 C68.5903226,28.8285405 67.1,41.7003243 66.7806452,45.3172424 Z" id="Shape" fill="#FFFFFF"></path>
                    <path d="M170.358065,53.1891892 C170.236108,53.2956179 170.054215,53.2956179 169.932258,53.1891892 L165.780645,52.2317838 C165.674194,52.1253522 165.46129,52.0189827 165.354839,51.9126486 C165.268872,51.7492834 165.231909,51.564597 165.248387,51.3807568 C165.256204,51.1293703 165.291907,50.8796265 165.354839,50.6361081 C165.490689,50.0746609 165.597284,49.5065452 165.674194,48.9340541 C165.780645,48.2957838 165.887097,47.5511351 165.993548,46.5937297 C166.206452,45.7427027 166.312903,44.8916757 166.525806,43.9342703 C166.951613,41.5939459 167.377419,39.1472432 167.803226,36.8069189 L167.909677,36.8069189 C168.335484,39.4663784 168.76129,42.0194595 169.187097,44.6789189 C169.381016,45.6279053 169.523161,46.5867257 169.612903,47.5511351 C169.825806,48.5085405 169.932258,49.3595676 170.03871,50.1042162 C170.145161,50.8488649 170.251613,51.4871351 170.358065,51.9126486 C170.414511,52.1574185 170.450122,52.4065241 170.464516,52.6572973 C170.492352,52.8415789 170.454685,53.0297817 170.358065,53.1891892 Z M174.722581,49.7850811 C174.646067,48.9161081 174.121498,48.1499567 173.33871,47.7638919 C173.125806,46.5937297 172.912903,45.4235676 172.7,44.2534054 C172.380645,42.5513514 172.167742,41.1684324 171.954839,39.7855135 C171.741935,38.508973 171.529032,37.4451892 171.422581,36.5941622 C171.316129,35.7431351 171.209677,35.3176216 171.209677,35.1048649 C171.136092,34.5596734 170.915285,34.0448107 170.570968,33.6155676 C170.15715,33.1093697 169.600936,32.7388152 168.974194,32.5517838 C166.951613,32.1262703 165.035484,31.5943784 163.119355,31.1688649 L163.119355,32.1262703 C163.119355,33.4027576 163.43871,34.2538378 164.183871,34.6793514 C164.396774,34.7857297 164.396774,34.8921081 164.396774,35.1048649 L164.396774,35.7431351 C164.297897,36.0915768 164.226708,36.4472769 164.183871,36.8069189 C164.077419,37.4451892 163.864516,38.2962162 163.651613,39.36 C163.43871,40.4237838 163.225806,41.5939459 162.906452,42.9768649 C162.8,43.6151351 162.693548,44.3597838 162.587097,44.9980541 C162.184861,44.8785119 161.749738,44.9563867 161.414021,45.2080015 C161.078303,45.4596163 160.881657,45.8552424 160.883871,46.2745946 C160.881749,47.0263999 161.289799,47.7196076 161.948387,48.083027 C161.096774,52.3381622 159.180645,62.5504422 159.180645,62.5504422 C160.564516,62.7631989 161.948387,63.0823341 163.225806,63.4014692 C163.225806,63.4014692 164.503226,56.4868746 164.503226,56.2741178 C164.609677,55.7422259 164.822581,55.5294692 165.248387,55.6358476 C166.951613,56.0613611 168.548387,56.4868746 170.251613,56.9123881 L170.890323,57.2315232 C171.077599,57.4779772 171.188613,57.7738096 171.209677,58.0825503 C171.209677,58.1889286 172.167742,65.7417935 172.167742,65.7417935 C173.658065,66.167307 175.041935,66.5928205 176.532258,67.0183341 C176.532258,67.0183341 174.722581,56.3804962 173.870968,51.0615773 C174.426055,50.8974121 174.784416,50.3602592 174.722581,49.7850811 Z" id="Shape" fill="#FFFFFF"></path>
                    <path d="M117.025806,35.8495135 C117.072873,36.678235 116.848672,37.4997412 116.387097,38.1898378 C115.918623,38.8208384 115.143558,39.1469569 114.364516,39.0408649 L111.596774,39.0408649 C111.490323,39.0408649 111.277419,38.9344865 111.170968,38.9344865 C111.064516,38.8281081 111.064516,38.7217297 111.064516,38.508973 L111.064516,29.3604324 C111.039384,29.1846442 111.098541,29.0072904 111.224191,28.8817272 C111.349841,28.7561639 111.527317,28.6970473 111.703226,28.7221622 L114.364516,28.7221622 C115.152912,28.7007323 115.904253,29.0563857 116.387097,29.6795676 C116.848227,30.4094385 117.071389,31.2643045 117.025806,32.1262703 L117.025806,35.8495135 Z M122.029032,54.3593514 C121.868845,54.2797546 121.724544,54.1716033 121.603226,54.0402162 C121.496774,54.0402162 121.496774,53.8274595 121.496774,53.5083243 L121.496774,46.1682162 C121.484547,45.1528504 121.304711,44.1464622 120.964516,43.1896216 C120.6564,42.3954644 120.141955,41.6977697 119.474194,41.1684324 C119.154839,40.8492973 119.154839,40.5301622 119.367742,40.3174054 C120.004509,39.8449059 120.516115,39.2240965 120.858065,38.508973 C121.292859,37.7292483 121.513235,36.8483528 121.496774,35.9558919 L121.496774,32.5517838 C121.475247,31.5803804 121.332201,30.6154833 121.070968,29.6795676 C120.798607,28.8251051 120.364988,28.030684 119.793548,27.3392432 C119.181023,26.642716 118.416052,26.0966838 117.558065,25.7435676 C116.527325,25.3874902 115.453015,25.1727761 114.364516,25.1052973 C111.277419,25.1052973 108.296774,25.1052973 105.209677,25.2116757 L105.209677,26.3818378 C105.175037,26.8643765 105.2863,27.3461832 105.529032,27.7647568 C105.721357,28.0633004 105.975444,28.3172125 106.274194,28.5094054 C106.380645,28.5094054 106.487097,28.6157838 106.593548,28.7221622 C106.639455,28.8972163 106.675,29.0748214 106.7,29.2540541 L106.7,39.1472432 C105.868708,39.2734301 105.269558,40.0103376 105.316129,40.8492973 C105.344009,41.6404185 105.920334,42.3049512 106.7,42.444973 L106.7,57.3379459 L111.064516,57.3379459 L111.064516,43.1896216 C111.064516,42.7641081 111.277419,42.5513514 111.596774,42.5513514 L114.364516,42.5513514 C115.152912,42.5299215 115.904253,42.8855749 116.387097,43.5087568 C116.848672,44.1988534 117.072873,45.0203596 117.025806,45.8490811 L117.025806,55.3167568 C117.009284,55.9139296 117.240425,56.4913838 117.664516,56.9124324 C118.147081,57.305689 118.745408,57.5299075 119.367742,57.5507027 C120.53871,57.5507027 121.816129,57.6570811 122.987097,57.6570811 L122.987097,56.0614497 C123.02719,55.645494 122.913597,55.2292531 122.667742,54.8912255 C122.482283,54.6833945 122.267045,54.5041585 122.029032,54.3593514 Z" id="Shape" fill="#FFFFFF"></path>
                    <path d="M135.867742,46.0618378 C135.388336,46.302377 135.096129,46.8029586 135.122581,47.3383784 C135.122581,47.5511351 135.229032,54.7848649 135.122581,54.8912432 C135.016129,55.104 134.803226,55.104 134.590323,55.104 C133.312903,54.9975743 132.035484,54.891196 130.758065,54.7848649 C130.545161,54.7848649 130.43871,54.6784865 130.332258,54.4657297 C130.245491,54.2647515 130.208956,54.0456954 130.225806,53.8274595 C130.119355,45.9554595 130.119355,38.0834595 130.119355,30.1050811 C130.136424,29.8896634 130.17204,29.6761164 130.225806,29.4668108 C130.332258,29.3603792 130.43871,29.2540097 130.545161,29.2540097 C130.843923,29.0618323 131.098013,28.8079172 131.290323,28.5093611 C131.536171,28.1713536 131.649763,27.7551347 131.609677,27.3391989 L131.609677,26.0627027 C129.16129,25.8499459 126.712903,25.6371892 124.264516,25.5308108 L124.264516,26.8074045 C124.242429,27.2550853 124.353557,27.6992706 124.583871,28.0838919 C124.804843,28.3580701 125.054665,28.60772 125.329032,28.8285405 L125.648387,29.1476757 C125.754839,29.2540541 125.754839,29.4668108 125.754839,29.7859459 L125.754839,39.5727568 C124.960429,39.6863333 124.370558,40.366486 124.370968,41.1684324 C124.394915,42.0059758 124.952272,42.7343264 125.754839,42.9768649 L125.754839,57.8698378 C129.693548,58.0825946 133.632258,58.5081081 137.464516,58.9336216 C137.783871,58.9336216 138.103226,59.04 138.316129,59.04 C138.583931,59.0853201 138.857871,59.0071053 139.06129,58.8272432 C139.271804,58.6377927 139.388544,58.3655861 139.380645,58.0825946 L139.380645,46.2745946 C138.741935,46.1682162 138.209677,46.0618378 137.570968,45.9554595 C137.00106,45.9307266 136.430133,45.966385 135.867742,46.0618378 Z" id="Shape" fill="#FFFFFF"></path>
                    <path d="M39.7419355,36.0622703 L39.4225806,36.0622703 C34.9516129,37.5516148 30.4806452,39.1472905 26.0096774,40.8492973 L26.0096774,42.1258378 C26.0102487,42.5601282 26.0821731,42.9913781 26.2225806,43.4023784 C26.4092311,43.580093 26.6253445,43.7240695 26.8612903,43.8278919 C27.0280699,43.8310122 27.184531,43.909189 27.2870968,44.0406486 C27.3935484,44.0406486 27.3935484,44.2534497 27.3935484,44.5725405 L27.3935484,54.252973 C26.6413158,54.7567719 26.1685673,55.5835127 26.116129,56.4869189 C26.0884319,56.8243984 26.2183703,57.1557254 26.4681518,57.3845342 C26.7179332,57.6133431 27.0595149,57.7139453 27.3935484,57.6570811 L27.3935484,72.5500541 C27.8193548,72.4436757 28.1387097,72.2309189 28.5645161,72.1245405 C30.4806452,71.3798919 32.3967742,70.7415684 34.3129032,69.996973 C35.1645161,69.7842162 36.016129,69.4650811 36.7612903,69.2523243 C37.4,69.0395203 38.0387097,68.8267635 38.6774194,68.6140541 C38.8903226,68.5076757 39.2096774,68.4012973 39.4225806,68.2949189 L39.5290323,68.2949189 C39.6354839,68.2949189 39.7419355,68.1884874 39.8483871,68.1884874 C39.9548387,68.082109 40.1677419,67.9757306 40.2741935,67.7629738 C40.4874634,67.5316687 40.6020354,67.2263536 40.5935484,66.9119468 L40.5935484,57.7634595 C39.9548387,57.9762162 39.316129,58.188973 38.783871,58.4017297 C38.1593848,58.5540011 37.5772378,58.8448743 37.0806452,59.2527568 C36.6415511,59.6184696 36.4041209,60.1720924 36.4419355,60.7420541 C36.4419355,60.8484324 36.5483871,65.4227027 36.4419355,65.6354595 C36.3402012,65.8348143 36.1335748,65.9587049 35.9096774,65.9545946 C35.3774194,66.1673514 34.8451613,66.3801081 34.3129032,66.5928649 C33.5677419,66.8056216 32.8225806,67.1247568 32.0774194,67.3375135 C31.7580645,67.4438919 31.5451613,67.3375135 31.5451613,66.912 L31.5451613,56.9124324 C31.5152099,56.5090776 31.7879974,56.1456112 32.183871,56.0614054 C33.8870968,55.4231351 35.5903226,54.8912432 37.2935484,54.252973 C37.6730943,54.2185203 37.9562355,53.8884162 37.9322581,53.5083243 L37.9322581,51.0616216 C37.9291394,50.8949559 37.850908,50.7386008 37.7193548,50.6361081 L37.2935484,50.6361081 C35.5903226,51.168 33.8870968,51.8062259 32.183871,52.3381622 C31.7580645,52.5509189 31.5451613,52.4445405 31.5451613,52.019027 L31.5451613,42.9768649 C31.5872239,42.7893355 31.659104,42.6097589 31.7580645,42.444973 C31.8645161,42.3385946 32.0774194,42.2322162 32.183871,42.1258378 C33.5677419,41.7003243 34.8451613,41.1684324 36.2290323,40.7429189 C36.3354839,40.7429189 36.3354839,40.7429189 36.4419355,40.8492973 C36.5483871,40.9556757 36.4419355,45.5299459 36.4419355,45.7427027 C36.4419355,46.380973 36.6548387,46.7001081 37.0806452,46.8064865 C37.6610894,46.7851631 38.2351231,46.6776058 38.783871,46.4873514 C39.3967968,46.3448507 40.0010191,46.1672605 40.5935484,45.9554595 L40.5935484,36.7005405 C40.5976423,36.4768023 40.4736721,36.2703275 40.2741935,36.1686486 C40.1146721,36.0721051 39.9263437,36.0344654 39.7419355,36.0622703 Z" id="Shape" fill="#FFFFFF"></path>
                    <path d="M155.454839,29.5731892 C155.348387,29.5731892 155.348387,29.4668108 155.241935,29.4668108 L155.135484,29.4668108 C150.558065,28.6157838 145.874194,27.7647568 141.190323,27.1264865 L141.190323,28.403027 C141.15569,28.8855651 141.266952,29.3673695 141.509677,29.7859459 C141.597359,30.118743 141.832689,30.3931058 142.148387,30.5305946 L142.574194,30.9561081 C142.692217,31.1501919 142.764985,31.3683459 142.787097,31.5943784 L142.787097,41.3811892 C142.388943,41.371493 142.00421,41.525285 141.72259,41.8067118 C141.440969,42.0881386 141.287071,42.472607 141.296774,42.8704865 C141.358044,43.728716 141.955962,44.4542595 142.787097,44.6789189 L142.787097,59.5718919 C143.106452,59.6782703 143.532258,59.6782703 143.851613,59.7846486 C145.874194,60.1037838 147.896774,60.4229189 149.919355,60.7420541 C150.770968,60.8484324 151.622581,61.0611892 152.474194,61.1675676 C153.123168,61.2584945 153.763891,61.4007796 154.390323,61.5930811 C154.603226,61.5930811 154.922581,61.6994595 155.135484,61.6994595 L155.56129,61.6994595 C155.711336,61.7152592 155.862144,61.6775832 155.987097,61.5930811 C156.19762,61.4036376 156.314363,61.1314262 156.306452,60.8484324 L156.306452,51.6998919 C155.667742,51.5935135 155.029032,51.4871351 154.496774,51.3807568 C153.93411,51.2734479 153.356213,51.2734479 152.793548,51.3807568 C152.26129,51.4871351 152.048387,51.8062703 152.048387,52.5509189 C152.048387,52.6572973 152.154839,57.2315676 152.048387,57.3379459 C151.941935,57.550747 151.729032,57.550747 151.516129,57.550747 C150.983871,57.4443214 150.451613,57.337943 149.919355,57.2316119 C149.12882,57.1508795 148.345797,57.0086096 147.577419,56.8060984 C147.258065,56.8060984 147.045161,56.5933416 147.045161,56.1678281 L147.045161,46.1682162 C147.045161,45.7427027 147.258065,45.5299459 147.683871,45.6363243 C149.493548,45.9554595 151.196774,46.1682162 153.006452,46.5937297 C153.432258,46.5937297 153.645161,46.4873514 153.645161,46.0618378 L153.645161,43.6151351 C153.641164,43.4178882 153.56549,43.2288319 153.432258,43.0832432 C153.219355,42.9768649 153.112903,42.8704865 152.9,42.8704865 C151.196774,42.5513514 149.493548,42.2322162 147.683871,41.9130811 C147.507965,41.9381805 147.330499,41.8790587 147.204853,41.7534993 C147.079207,41.62794 147.020045,41.4505957 147.045161,41.2748108 L147.045161,32.2326486 C147.071701,32.072645 147.145897,31.9243544 147.258065,31.8071351 C147.364516,31.7007568 147.470968,31.7007568 147.683871,31.7007568 C149.067742,31.9135135 150.451613,32.1262703 151.835484,32.4454054 C151.941935,32.4454054 151.941935,32.5517838 152.048387,32.5517838 C152.154839,32.7645405 152.048387,37.3388108 152.048387,37.4451892 C151.975056,38.0460807 152.268496,38.6325312 152.793548,38.9344244 C153.347518,39.1822176 153.916355,39.3953848 154.496774,39.5726947 C155.029032,39.6790731 155.667742,39.7854515 156.306452,39.8918298 L156.306452,30.636973 C156.274959,30.3629425 156.16395,30.1041001 155.987097,29.8923243 C155.824733,29.7626731 155.645722,29.6553403 155.454839,29.5731892 Z" id="Shape" fill="#FFFFFF"></path>
                    <path d="M74.0193548,131.164541 L75.5096774,132.653838 C75.9354839,132.972973 76.4677419,133.504865 77.1064516,132.866595 C77.341477,132.695667 77.4640324,132.409901 77.4258065,132.121946 C77.4258065,131.802811 77.2129032,131.590054 76.6806452,131.164541 L75.2967742,129.781622 L74.0193548,131.164541 Z M74.8709677,127.760432 L77.9580645,130.739027 C78.6892645,131.187883 79.1019686,132.012723 79.0225806,132.866595 C78.7873404,133.848811 77.9941641,134.599724 77,134.781405 C76.1607171,134.788337 75.3689884,134.392745 74.8709677,133.717622 L73.1677419,132.015568 L71.3580645,133.930378 L70.0806452,132.760216 L74.8709677,127.760432 Z" id="Shape" fill="#FFFFFF"></path>
                    <polygon id="Shape" fill="#FFFFFF" points="83.0677419 134.887784 88.6032258 138.185514 87.9645161 139.249297 83.9193548 136.908973 83.1741935 138.185514 87.0064516 140.525838 86.3677419 141.589622 82.5354839 139.249297 81.683871 140.632216 85.8354839 143.185297 85.1967742 144.249081 79.5548387 140.844973"></polygon>
                    <polygon id="Shape" fill="#FFFFFF" points="92.7548387 139.993946 94.3516129 140.525838 92.5419355 145.844757 96.1612903 147.121297 95.8419355 148.291459 90.5193548 146.589405"></polygon>
                    <path d="M116.812903,147.546811 C116.704537,148.155144 116.406458,148.713657 115.96129,149.142486 C115.117037,149.97701 113.951714,150.403984 112.767742,150.312604 C110.319355,150.418983 108.616129,149.248821 108.509677,146.802118 C108.403226,144.249037 110.425806,143.078875 112.554839,142.972496 C113.406452,142.972496 115.641935,143.078875 116.6,144.993685 L114.790323,145.312821 C114.308472,144.618775 113.506019,144.217825 112.66129,144.249037 C111.791367,144.267384 110.999634,144.75516 110.592474,145.523607 C110.185314,146.292054 110.226612,147.220603 110.700385,147.949925 C111.174158,148.679246 112.006072,149.09491 112.874194,149.036064 C113.810787,149.092342 114.67449,148.531299 115.003226,147.653092 L116.812903,147.546811 Z" id="Shape" fill="#FFFFFF"></path>
                    <path d="M124.583871,143.291676 C124.583871,143.185297 124.477419,143.185297 124.370968,143.078919 C124.385455,142.961942 124.346341,142.844679 124.264516,142.759784 L124.264516,143.398054 L123.945161,145.844757 L126.180645,145.206486 L124.583871,143.291676 Z M122.987097,141.589622 L124.796774,141.05773 L129.906452,146.695784 L128.096774,147.227676 L127.13871,146.163892 L123.732258,147.227676 L123.519355,148.610595 L121.709677,149.142486 L122.987097,141.589622 Z" id="Shape" fill="#FFFFFF"></path>
                    <path d="M131.396774,138.504693 L132.887097,137.653595 L137.783871,139.142937 C138.422581,139.355693 138.529032,139.462072 139.167742,139.674829 C138.741935,139.142937 138.635484,138.93018 138.316129,138.504711 L136.506452,135.419738 L137.996774,134.568711 L141.509677,140.5259 L140.019355,141.376927 L135.122581,139.781251 C134.651504,139.6734 134.188974,139.531181 133.73871,139.355738 C134.058065,139.781251 134.164516,139.88763 134.483871,140.313143 L136.4,143.610953 L135.016129,144.46198 L131.396774,138.504693 Z" id="Shape" fill="#FFFFFF"></path>
                    <path d="M145.66129,134.355892 C146.512903,134.675027 147.364516,134.143135 148.109677,133.504865 C148.322581,133.18573 149.280645,132.228324 148.641935,131.590054 C148.322581,131.270919 147.896774,131.483676 147.577419,131.696432 C147.053249,132.146313 146.482231,132.538618 145.874194,132.866595 C145.341935,133.292108 143.958065,134.143135 142.893548,133.079351 C142.665146,132.80608 142.517669,132.474485 142.467742,132.121946 C142.359799,131.006886 142.844585,129.916868 143.745161,129.24973 C144.31986,128.608591 145.05455,128.131371 145.874194,127.866811 C146.400405,127.753423 146.944757,127.753423 147.470968,127.866811 L146.619355,129.356108 C146.338421,129.298398 146.048676,129.298398 145.767742,129.356108 C145.333901,129.528272 144.936587,129.780935 144.596774,130.100757 C144.064516,130.632649 143.532258,131.270919 144.064516,131.802811 C144.383871,132.121946 144.703226,131.909189 145.129032,131.590054 C145.448387,131.483676 146.619355,130.632649 146.832258,130.52627 C147.577419,129.994378 148.748387,129.356108 149.812903,130.419892 C151.303226,132.015568 149.493548,133.930378 148.854839,134.46227 C147.890202,135.668076 146.292347,136.172314 144.809677,135.738811 L145.66129,134.355892 Z" id="Shape" fill="#FFFFFF"></path>
                    <path d="M102.335484,101.272261 C102.335484,101.272261 77.5322581,92.974747 88.283871,66.6992876 C88.283871,66.6992876 62.0967742,67.7630714 26.3290323,82.2305308 C26.3290323,82.2305308 23.7741935,83.1879362 22.283871,83.7198281 C19.9785779,84.7779934 17.3183202,84.7388989 15.0451613,83.6134497 C15.0451613,83.6134497 47.9387097,66.4864865 89.9870968,62.4441081 C95.6290323,62.0185946 96.2677419,62.7632432 94.883871,64.8908108 C93.6064516,66.5928649 78.5967742,85.740973 102.335484,101.272261 Z" id="Shape" fill="#FFFFFF"></path>
                    <path d="M80.3,74.1457297 C59.116129,76.9115676 38.3580645,84.2516757 38.3580645,84.2516757 C41.8709677,90.528 51.4516129,87.8685405 51.4516129,87.8685405 C69.4419355,82.7623784 77.4258065,81.0603243 79.9806452,80.5284324 C79.8821129,78.3955538 79.9890567,76.2581487 80.3,74.1457297 Z" id="Shape" fill="#B4975A"></path>
                    <path d="M80.5129032,84.4644324 C69.1469827,86.675653 57.9711081,89.770023 47.0870968,93.7193514 C47.0870968,93.7193514 51.8774194,99.1446486 61.2451613,96.4851892 C69.016129,94.2512432 79.1290323,91.0598919 82.216129,90.1024865 C81.411256,88.3029821 80.8389129,86.4083998 80.5129032,84.4644324 Z" id="Shape" fill="#B4975A"></path>
                    <path d="M83.7064516,92.9747027 C80.5129032,94.0384865 64.5451613,99.251027 57.8387097,101.804108 C57.8387097,101.804108 61.6709677,107.016649 72.8483871,102.655135 C80.6193548,99.5701622 84.983871,97.7617297 86.7935484,96.9107027 C85.6557563,95.6876448 84.6230738,94.3709907 83.7064516,92.9747027 Z" id="Shape" fill="#B4975A"></path>
                    <path d="M89.3483871,99.251027 C86.4741935,100.421189 76.1483871,104.995459 70.0806452,107.867676 C70.0806452,107.867676 77.6387097,111.590919 87.2193548,105.740108 L93.0741935,101.804108 C91.767502,101.051528 90.5217621,100.197894 89.3483871,99.251027 Z" id="Shape" fill="#B4975A"></path>
                    <path d="M95.9483871,103.293405 C94.0322581,104.463568 86.1548387,109.463351 82.3225806,112.335568 C82.3225806,112.335568 88.9225806,114.995027 95.6290323,108.718703 C97.7580645,106.697514 98.9290323,105.527351 99.5677419,104.782703 C98.3325709,104.359051 97.1239478,103.861725 95.9483871,103.293405 Z" id="Shape" fill="#B4975A"></path>
                    <path d="M118.196774,101.272261 C118.196774,101.272261 143,92.974747 132.248387,66.6992876 C132.248387,66.6992876 158.329032,67.7630714 194.203226,82.2305308 C194.203226,82.2305308 196.758065,83.1879362 198.248387,83.7198281 C200.516364,84.7791044 203.145314,84.7398933 205.380645,83.6134497 C205.380645,83.6134497 172.593548,66.4864865 130.43871,62.4441081 C124.903226,62.0185946 124.158065,62.7632432 125.648387,64.8908108 C126.819355,66.5928649 141.935484,85.740973 118.196774,101.272261 Z" id="Shape" fill="#FFFFFF"></path>
                    <path d="M140.232258,74.1457297 C161.416129,76.9115676 182.174194,84.2516757 182.174194,84.2516757 C178.554839,90.528 169.080645,87.8685405 169.080645,87.8685405 C151.090323,82.7623784 143,81.06028 140.445161,80.5284324 C140.528701,78.3985192 140.457547,76.2653558 140.232258,74.1457297 Z" id="Shape" fill="#B4975A"></path>
                    <path d="M140.019355,84.4644324 C151.382024,86.6894322 162.556842,89.7835097 173.445161,93.7193514 C173.445161,93.7193514 168.654839,99.1446486 159.287097,96.4851892 C151.409677,94.2512432 141.296774,91.0598919 138.316129,90.1024865 C139.121002,88.3029821 139.693345,86.4083998 140.019355,84.4644324 Z" id="Shape" fill="#B4975A"></path>
                    <path d="M136.719355,92.9747027 C139.912903,94.0384865 155.987097,99.251027 162.693548,101.804108 C162.693548,101.804108 158.86129,107.016649 147.683871,102.655135 C139.806452,99.5701622 135.548387,97.7617297 133.632258,96.9107027 C134.833092,95.7428291 135.871417,94.4189803 136.719355,92.9747027 Z" id="Shape" fill="#B4975A"></path>
                    <path d="M131.183871,99.251027 C133.951613,100.421189 144.383871,104.995459 150.345161,107.867676 C150.345161,107.867676 142.787097,111.590919 133.312903,105.740108 L127.458065,101.804108 C128.764757,101.051529 130.010497,100.197895 131.183871,99.251027 Z" id="Shape" fill="#B4975A"></path>
                    <path d="M124.583871,103.293405 C126.393548,104.463568 134.270968,109.463351 138.103226,112.335568 C138.103226,112.335568 131.609677,114.995027 124.903226,108.718703 C122.774194,106.697514 121.603226,105.527351 120.964516,104.782703 C122.029032,104.357189 123.306452,103.93172 124.583871,103.293405 Z" id="Shape" fill="#B4975A"></path>
                    <path d="M130.545161,115.633297 C130.56669,123.829758 125.64527,131.232102 118.075753,134.388627 C110.506236,137.545153 101.779308,135.834236 95.9643222,130.053675 C90.1493367,124.273114 88.3914554,115.561291 91.5103756,107.980516 C94.6292959,100.399741 102.0108,95.442918 110.212903,95.4214054 C115.5944,95.3968671 120.764113,97.5150399 124.57942,101.307761 C128.394728,105.100482 130.541467,110.255448 130.545161,115.633297 Z" id="Shape" fill="#FFFFFF"></path>
                    <path d="M126.287097,119.782107 C126.287097,128.653532 119.090435,135.845242 110.212903,135.845242 C101.335371,135.845242 94.1387097,128.653532 94.1387097,119.782107 C94.1387097,110.910683 101.335371,103.718972 110.212903,103.718972 C114.482716,103.697103 118.583977,105.382441 121.60323,108.399617 C124.622483,111.416792 126.308981,115.515232 126.287097,119.782107 Z" id="Shape" fill="#B4975A"></path>
                    <path d="M120.964516,130.951784 C119.854193,130.196676 119.058974,129.061431 118.729032,127.760432 L118.729032,127.441297 C122.836707,125.70618 126.298348,122.730473 128.629032,118.931027 C127.781081,123.79922 125.021669,128.126985 120.964516,130.951784 Z M91.9032258,118.931027 C94.2071351,122.753158 97.6771075,125.736027 101.803226,127.441297 L101.803226,127.760432 C101.47329,129.061434 100.67807,130.196681 99.5677419,130.951784 C95.5317795,128.106723 92.7785068,123.788588 91.9032258,118.931027 Z M96.1612903,103.399784 C95.3096774,107.974054 97.2258065,112.335568 99.0354839,116.271568 C100.289212,118.878802 101.218711,121.629655 101.803226,124.462703 C96.8423123,122.011329 93.2187719,117.494753 91.9032258,112.122811 C92.5279761,108.890773 93.9970007,105.881344 96.1612903,103.399784 Z M115.96129,125.526486 C114.543031,125.97298 113.078967,126.258454 111.596774,126.377514 L111.596774,97.0170811 C114.484988,97.2485815 117.285198,98.1207737 119.793548,99.5701622 C123.519355,104.995459 121.496774,109.782486 119.048387,115.207784 C117.558065,118.505514 116.067742,121.909622 115.96129,125.526486 Z M111.596774,129.036973 C113.110881,128.962207 114.611214,128.712324 116.067742,128.292324 C116.396799,129.909881 117.258827,131.370575 118.516129,132.441081 C116.327433,133.427251 113.988365,134.038586 111.596774,134.249514 L111.596774,129.036973 Z M104.464516,128.292324 C105.921045,128.712321 107.421377,128.962205 108.935484,129.036973 L108.935484,134.249514 C106.543893,134.038586 104.204825,133.427251 102.016129,132.441081 C103.273436,131.370579 104.135465,129.909883 104.464516,128.292324 Z M100.632258,99.5701622 C103.178792,98.1201075 106.013705,97.2484266 108.935484,97.0170811 L108.935484,126.377514 C107.453291,126.258453 105.989228,125.972978 104.570968,125.526486 C104.464516,121.909622 102.974194,118.505514 101.483871,115.207784 C99.0354839,109.782486 96.9064516,104.995459 100.632258,99.5701622 Z M128.629032,112.122811 C127.240839,117.432491 123.634394,121.889006 118.729032,124.356324 C119.330888,121.562212 120.259864,118.848634 121.496774,116.27163 C123.306452,112.33563 125.222581,107.974116 124.370968,103.399846 C126.535248,105.881388 128.004272,108.890795 128.629032,112.122811 Z M110.212903,93.8257297 C98.1744614,93.8842814 88.4573521,103.673792 88.49641,115.704032 C88.535468,127.734271 98.3159382,137.460567 110.354507,137.441057 C122.393075,137.421546 132.141925,127.6636 132.141935,115.633297 C132.134053,109.83354 129.817743,104.275147 125.703895,100.184086 C121.590048,96.0930253 116.016623,93.8053846 110.212903,93.8257297 Z" id="Shape" fill="#002B5C"></path>
                    <path d="M116.706452,65.4227027 C116.706452,65.4227027 116.6,66.1673514 116.174194,66.1673514 C114.671525,65.64402 113.212216,65.0037889 111.809677,64.2525405 C111.290633,63.9694274 110.792581,63.6494712 110.319355,63.2951351 C110.319355,63.2951351 109.148387,63.9334054 108.616129,64.2525405 C107.248043,64.999048 105.824483,65.6392093 104.358065,66.1673514 C103.932258,66.1673514 103.719355,65.4227027 103.719355,65.4227027 C103.719355,65.4227027 96.9064516,69.5715038 96.9064516,81.0603243 C96.9064516,89.676973 101.377419,93.5065946 101.377419,93.5065946 L101.909677,95.9532973 L118.622581,95.9532973 L119.154839,93.5065946 C119.154839,93.5065946 123.625806,89.676973 123.625806,81.0603243 C123.625806,69.5714595 116.706452,65.4227027 116.706452,65.4227027 Z" id="Shape" fill="#002B5C"></path>
                    <path d="M120.006452,78.1881081 C120.031795,75.1882316 118.973485,72.2798806 117.025806,69.996973 C117.025806,69.996973 116.919355,71.0607568 115.322581,69.8905946 C112.28784,67.7628254 108.244418,67.7628254 105.209677,69.8905946 C103.612903,71.0607568 103.506452,69.996973 103.506452,69.996973 C101.558773,72.2798802 100.500462,75.1882315 100.525806,78.1881081 C100.525806,81.1667027 101.164516,82.5496216 101.483871,82.9751351 C102.974194,86.6983784 106.274194,89.3578378 110.212903,89.3578378 C114.142638,89.2745526 117.614101,86.7785114 118.941935,83.0815135 C119.048387,82.9751351 120.006452,81.5922162 120.006452,78.1881081 Z" id="Shape" fill="#FFFFFF"></path>
                    <path d="M113.93871,86.1664865 C113.332555,85.1473328 113.558288,83.8389793 114.470968,83.0815135 C114.470968,83.0815135 118.090323,83.8261622 118.196774,79.0391351 C118.173084,78.5096643 118.322553,77.9868816 118.622581,77.5498378 C118.622581,77.5498378 117.664516,76.6988108 115.641935,78.1881081 C113.725806,79.6774054 112.554839,84.0389189 111.490323,82.9751351 C110.425806,82.0177297 110.851613,76.3796757 110.212903,76.1668746 C109.680645,76.3796757 110.106452,82.0176854 109.041935,82.9751351 C107.870968,84.0389189 106.806452,79.6774054 104.783871,78.1881081 C102.76129,76.6988108 101.909677,77.5498378 101.909677,77.5498378 C102.144171,78.0150549 102.288638,78.5203413 102.335484,79.0391351 C102.335484,83.8261622 105.954839,83.0815135 105.954839,83.0815135 C106.872171,83.8287937 107.138839,85.1168029 106.593548,86.1664865 C102.335484,81.5922162 99.7806452,82.2304865 101.058065,87.3366486 C102.229032,92.4428108 106.912903,114.250378 107.658065,119.356541 C107.551613,123.824432 107.019355,125.526486 106.806452,125.845622 L106.380645,126.803027 L106.912903,127.760432 C107.548133,128.732182 108.083127,129.765792 108.509677,130.845405 L110.212903,135.313297 L112.022581,130.845405 C112.449129,129.765792 112.984123,128.732181 113.619355,127.760432 L114.151613,126.803027 L113.619355,125.845622 C113.512903,125.526486 112.980645,123.930811 112.874194,119.569297 C113.512903,114.995027 118.303226,92.5491892 119.474194,87.3366486 C120.751613,82.2304865 118.196774,81.5922162 113.93871,86.1664865 Z" id="Shape" fill="#002B5C"></path>
                    <path d="M107.33871,108.931459 C105.741935,100.846703 104.570968,94.7831351 103.612903,90.4216748 C102.867742,87.1239451 104.890323,88.506864 105.954839,90.5280532 L107.33871,108.931459 Z" id="Shape" fill="#E31837"></path>
                    <path d="M113.193548,108.931459 C114.683871,100.846703 115.96129,94.7831351 116.919355,90.4216748 C117.664516,87.1239451 115.641935,88.506864 114.577419,90.5280532 L113.193548,108.931459 Z" id="Shape" fill="#E31837"></path>
                    <path d="M104.890323,81.4858378 C104.597981,81.3604148 104.424228,81.0565561 104.464516,80.7411892 C104.570968,80.6348108 104.570968,80.5284324 104.677419,80.4220541 C104.452347,80.1835321 104.202559,79.9695751 103.932258,79.7837838 C103.932258,79.7837838 103.506452,82.1241081 105.529032,81.9113514 C105.507543,81.7180666 105.433959,81.5342345 105.316129,81.3794595 C105.209677,81.4858378 105.103226,81.4858378 104.890323,81.4858378 Z" id="Shape" fill="#E31837"></path>
                    <path d="M116.493548,79.783837 C116.280645,79.9965937 115.96129,80.2093505 115.854839,80.4221072 C115.854839,80.5284856 115.96129,80.634864 115.96129,80.7412424 C116.024707,80.8816371 116.026242,81.0421852 115.965523,81.1837656 C115.904804,81.3253461 115.787406,81.4349576 115.641935,81.485891 C115.429032,81.485891 115.322581,81.485891 115.216129,81.3795126 C115.099808,81.5507026 114.993189,81.7282789 114.896774,81.9114045 C117.025806,82.1241081 116.493548,79.783837 116.493548,79.783837 Z" id="Shape" fill="#E31837"></path>
                    <path d="M111.277419,111.910098 C111.916129,99.3574497 112.874194,90.5279911 112.874194,89.4641985 C112.901218,88.9586565 112.828889,88.4527198 112.66129,87.9749632 L111.916129,90.3152876 L111.703226,86.1665308 C111.290051,85.59305 110.786779,85.0901239 110.212903,84.6772335 C109.664187,85.1188938 109.164545,85.6181917 108.722581,86.1665308 L108.509677,90.3152876 L107.764516,87.9749632 C107.648825,88.4639569 107.577568,88.9623936 107.551613,89.4641985 C107.551613,90.5279823 108.616129,99.3573877 109.254839,111.910098 C109.893548,124.462809 108.403226,126.803027 108.403226,126.803027 C109.098079,127.960651 109.703079,129.169817 110.212903,130.419892 C110.776741,129.176122 111.416661,127.968216 112.129032,126.803027 C112.129032,126.803027 110.532258,124.462703 111.277419,111.910098 Z" id="Shape" fill="#E31837"></path>
                    <polygon id="Shape" fill="#FFFFFF" points="102.867742 149.674378 101.164516 149.461622 102.229032 142.547027 103.932258 142.866162"></polygon>
                </g>
            </g>
        </g>
    </g>
</svg>